name rise34.3697peak60.0498fall86.3158.mot
datacolumns 19
datarows 35
range 2.56831900000000 2.62499400000000
endheader
time	ground_force1_vx	ground_force1_vy	ground_force1_vz	ground_force1_px	ground_force1_py	ground_force1_pz	ground_force2_vx	ground_force2_vy	ground_force2_vz	ground_force2_px	ground_force2_py	ground_force2_pz	ground_torque1_x	ground_torque1_y	ground_torque1_z	ground_torque2_x	ground_torque2_y	ground_torque2_z	
2.56831900000000	-48.58060200000000	817.33193500000004	64.82922900000000	0.20879400000000	0.00000000000000	0.11051200000000	-4.77713100000000	21.48238300000000	3.30724500000000	0.00000000000000	0.00000000000000	0.00000000000000	0.00000000000000	36.11438000000000	0.00000000000000	0.00000000000000	1.47243700000000	0.00000000000000	
2.56998600000000	-48.37114400000000	814.96754999999996	64.66385699999999	0.20845900000000	0.00000000000000	0.11036700000000	-5.73669100000000	27.38784800000000	4.04850900000000	0.47816300000000	0.00000000000000	-0.07236600000000	0.00000000000000	35.91349000000000	0.00000000000000	0.00000000000000	3.33583200000000	0.00000000000000	
2.57165300000000	-48.16934200000000	812.45382800000004	64.46987300000001	0.20811200000000	0.00000000000000	0.11021800000000	-6.65550100000000	33.67168100000000	4.78749600000000	0.47998800000000	0.00000000000000	-0.07330200000000	0.00000000000000	35.70335100000000	0.00000000000000	0.00000000000000	3.97134100000000	0.00000000000000	
2.57332600000000	-47.97614900000000	809.79183699999999	64.24696400000001	0.20775200000000	0.00000000000000	0.11006700000000	-7.49536100000000	40.20905000000000	5.49940000000000	0.48139800000000	0.00000000000000	-0.07417800000000	0.00000000000000	35.48412100000000	0.00000000000000	0.00000000000000	4.59158100000000	0.00000000000000	
2.57499400000000	-47.79249100000000	806.98277099999996	63.99487400000000	0.20737700000000	0.00000000000000	0.10991200000000	-8.22205300000000	46.87841800000000	6.16136000000000	0.48247000000000	0.00000000000000	-0.07500200000000	0.00000000000000	35.25597500000000	0.00000000000000	0.00000000000000	5.17792800000000	0.00000000000000	
2.57665600000000	-47.61925900000000	804.02793999999994	63.71340200000000	0.20698800000000	0.00000000000000	0.10975300000000	-8.80754200000000	53.57077000000000	6.75396000000000	0.48326500000000	0.00000000000000	-0.07578000000000	0.00000000000000	35.01910500000000	0.00000000000000	0.00000000000000	5.71453700000000	0.00000000000000	
2.57832000000000	-47.45731100000000	800.92875900000001	63.40241100000000	0.20658400000000	0.00000000000000	0.10959100000000	-9.23142800000000	60.19671000000000	7.26228600000000	0.48383300000000	0.00000000000000	-0.07651700000000	0.00000000000000	34.77371700000000	0.00000000000000	0.00000000000000	6.18919900000000	0.00000000000000	
2.57998600000000	-47.30746500000000	797.68673899999999	63.06182400000000	0.20616400000000	0.00000000000000	0.10942600000000	-9.48158800000000	66.69094000000000	7.67646500000000	0.48421600000000	0.00000000000000	-0.07721900000000	0.00000000000000	34.52003600000000	0.00000000000000	0.00000000000000	6.59378000000000	0.00000000000000	
2.58165800000000	-47.17049900000000	794.30347200000006	62.69162500000000	0.20572700000000	0.00000000000000	0.10925600000000	-9.55404200000000	73.01404599999999	7.99171200000000	0.48444800000000	0.00000000000000	-0.07788700000000	0.00000000000000	34.25830300000000	0.00000000000000	0.00000000000000	6.92426800000000	0.00000000000000	
2.58332200000000	-47.04714500000000	790.78061900000000	62.29186100000000	0.20527400000000	0.00000000000000	0.10908300000000	-9.45217800000000	79.15186500000000	8.20795900000000	0.48455700000000	0.00000000000000	-0.07852600000000	0.00000000000000	33.98877100000000	0.00000000000000	0.00000000000000	7.18045400000000	0.00000000000000	
2.58499000000000	-46.93809000000000	787.11990500000002	61.86264300000000	0.20480400000000	0.00000000000000	0.10890700000000	-9.18550300000000	85.11287200000000	8.32915000000000	0.48456700000000	0.00000000000000	-0.07913800000000	0.00000000000000	33.71171300000000	0.00000000000000	0.00000000000000	7.36537700000000	0.00000000000000	
2.58665600000000	-46.84396900000000	783.32310099999995	61.40414600000000	0.20431700000000	0.00000000000000	0.10872600000000	-8.76810900000000	90.92414500000000	8.36234200000000	0.48449700000000	0.00000000000000	-0.07972600000000	0.00000000000000	33.42741000000000	0.00000000000000	0.00000000000000	7.48458000000000	0.00000000000000	
2.58833300000000	-46.76536500000000	779.39201500000001	60.91660800000000	0.20381200000000	0.00000000000000	0.10854100000000	-8.21702000000000	96.62649999999999	8.31669300000000	0.48436400000000	0.00000000000000	-0.08029000000000	0.00000000000000	33.13616200000000	0.00000000000000	0.00000000000000	7.54530800000000	0.00000000000000	
2.59000400000000	-46.70280200000000	775.32848300000001	60.40032900000000	0.20329000000000	0.00000000000000	0.10835300000000	-7.55059400000000	102.26932800000000	8.20246800000000	0.48418200000000	0.00000000000000	-0.08083400000000	0.00000000000000	32.83827800000000	0.00000000000000	0.00000000000000	7.55570100000000	0.00000000000000	
2.59165900000000	-46.65675000000000	771.13435800000002	59.85567500000000	0.20275000000000	0.00000000000000	0.10816000000000	-6.78707900000000	107.90562300000001	8.03011400000000	0.48396400000000	0.00000000000000	-0.08135800000000	0.00000000000000	32.53407700000000	0.00000000000000	0.00000000000000	7.52405700000000	0.00000000000000	
2.59332600000000	-46.62761200000000	766.81149700000003	59.28307300000000	0.20219300000000	0.00000000000000	0.10796300000000	-5.94343300000000	113.58754800000000	7.80949200000000	0.48371900000000	0.00000000000000	-0.08186400000000	0.00000000000000	32.22389300000000	0.00000000000000	0.00000000000000	7.45821000000000	0.00000000000000	
2.59498700000000	-46.61573000000000	762.36175600000001	58.68301100000000	0.20161800000000	0.00000000000000	0.10776300000000	-5.03444100000000	119.36280200000000	7.54927500000000	0.48345600000000	0.00000000000000	-0.08235200000000	0.00000000000000	31.90806300000000	0.00000000000000	0.00000000000000	7.36506200000000	0.00000000000000	
2.59665700000000	-46.62137800000000	757.78697699999998	58.05603900000000	0.20102500000000	0.00000000000000	0.10755700000000	-4.07214800000000	125.27193000000000	7.25655300000000	0.48318300000000	0.00000000000000	-0.08282500000000	0.00000000000000	31.58693700000000	0.00000000000000	0.00000000000000	7.25025300000000	0.00000000000000	
2.59832000000000	-46.64475900000000	753.08897999999999	57.40276400000000	0.20041500000000	0.00000000000000	0.10734800000000	-3.06560600000000	131.34661199999999	6.93661700000000	0.48290500000000	0.00000000000000	-0.08328200000000	0.00000000000000	31.26086700000000	0.00000000000000	0.00000000000000	7.11800000000000	0.00000000000000	
2.59999400000000	-46.68600400000000	748.26955699999996	56.72385200000000	0.19978800000000	0.00000000000000	0.10713500000000	-2.02088200000000	137.60888100000000	6.59292300000000	0.48262900000000	0.00000000000000	-0.08372500000000	0.00000000000000	30.93021300000000	0.00000000000000	0.00000000000000	6.97106300000000	0.00000000000000	
2.60165400000000	-46.74517100000000	743.33046000000002	56.02002500000000	0.19914500000000	0.00000000000000	0.10691700000000	-0.94128900000000	144.07116500000001	6.22720300000000	0.48235800000000	0.00000000000000	-0.08415300000000	0.00000000000000	30.59533600000000	0.00000000000000	0.00000000000000	6.81082400000000	0.00000000000000	
2.60332600000000	-46.82223700000000	738.27339800000004	55.29205900000000	0.19848600000000	0.00000000000000	0.10669500000000	0.17221200000000	150.73700199999999	5.83967700000000	0.48209600000000	0.00000000000000	-0.08456900000000	0.00000000000000	30.25660100000000	0.00000000000000	0.00000000000000	6.63746400000000	0.00000000000000	
2.60498700000000	-46.91710400000000	733.10002899999995	54.54077900000000	0.19781100000000	0.00000000000000	0.10646800000000	1.32051500000000	157.60224099999999	5.42935100000000	0.48184700000000	0.00000000000000	-0.08497200000000	0.00000000000000	29.91437200000000	0.00000000000000	0.00000000000000	6.45018300000000	0.00000000000000	
2.60665400000000	-47.02959000000000	727.81195000000002	53.76706100000000	0.19712100000000	0.00000000000000	0.10623800000000	2.50582300000000	164.65655599999999	4.99434300000000	0.48161300000000	0.00000000000000	-0.08536300000000	0.00000000000000	29.56901200000000	0.00000000000000	0.00000000000000	6.24746300000000	0.00000000000000	
2.60832000000000	-47.15943200000000	722.41070100000002	52.97182900000000	0.19641600000000	0.00000000000000	0.10600300000000	3.73109800000000	171.88509900000000	4.53222400000000	0.48139700000000	0.00000000000000	-0.08574200000000	0.00000000000000	29.22088100000000	0.00000000000000	0.00000000000000	6.02733200000000	0.00000000000000	
2.60998700000000	-47.30628200000000	716.89775299999997	52.15604700000000	0.19569800000000	0.00000000000000	0.10576300000000	4.99956000000000	179.27015000000000	4.04033500000000	0.48120000000000	0.00000000000000	-0.08611000000000	0.00000000000000	28.87033300000000	0.00000000000000	0.00000000000000	5.78761000000000	0.00000000000000	
2.61165300000000	-47.46970500000000	711.27450499999998	51.32072200000000	0.19496700000000	0.00000000000000	0.10552000000000	6.31425600000000	186.79263200000000	3.51607000000000	0.48102300000000	0.00000000000000	-0.08646700000000	0.00000000000000	28.51771900000000	0.00000000000000	0.00000000000000	5.52613000000000	0.00000000000000	
2.61331900000000	-47.64918200000000	705.54228699999999	50.46689800000000	0.19422400000000	0.00000000000000	0.10527200000000	7.67771200000000	194.43341699999999	2.95709900000000	0.48086900000000	0.00000000000000	-0.08681300000000	0.00000000000000	28.16337900000000	0.00000000000000	0.00000000000000	5.24091700000000	0.00000000000000	
2.61499100000000	-47.84410400000000	699.70235600000001	49.59565500000000	0.19347000000000	0.00000000000000	0.10502000000000	9.09169200000000	202.17436300000000	2.36154400000000	0.48073700000000	0.00000000000000	-0.08715000000000	0.00000000000000	27.80764600000000	0.00000000000000	0.00000000000000	4.93032200000000	0.00000000000000	
2.61665500000000	-48.05377500000000	693.75589400000001	48.70810000000000	0.19270500000000	0.00000000000000	0.10476400000000	10.55705200000000	209.99905500000000	1.72808100000000	0.48062900000000	0.00000000000000	-0.08747600000000	0.00000000000000	27.45084100000000	0.00000000000000	0.00000000000000	4.59310800000000	0.00000000000000	
2.61832000000000	-48.27741200000000	687.70401400000003	47.80537300000000	0.19193200000000	0.00000000000000	0.10450300000000	12.07367700000000	217.89326199999999	1.05600100000000	0.48054500000000	0.00000000000000	-0.08779200000000	0.00000000000000	27.09327200000000	0.00000000000000	0.00000000000000	4.22849200000000	0.00000000000000	
2.61999000000000	-48.51414100000000	681.54775800000004	46.88863500000000	0.19115000000000	0.00000000000000	0.10423900000000	13.64050000000000	225.84512899999999	0.34520600000000	0.48048500000000	0.00000000000000	-0.08810000000000	0.00000000000000	26.73523400000000	0.00000000000000	0.00000000000000	3.83615800000000	0.00000000000000	
2.62165400000000	-48.76300400000000	675.28810599999997	45.95906900000000	0.19036200000000	0.00000000000000	0.10397000000000	15.25558500000000	233.84514500000000	-0.40382200000000	0.48044900000000	0.00000000000000	-0.08839700000000	0.00000000000000	26.37700500000000	0.00000000000000	0.00000000000000	3.41622200000000	0.00000000000000	
2.62332500000000	-49.02295200000000	668.92597899999998	45.01787500000000	0.18956900000000	0.00000000000000	0.10369800000000	16.91624300000000	241.88593000000000	-1.19008900000000	0.48043700000000	0.00000000000000	-0.08868600000000	0.00000000000000	26.01885000000000	0.00000000000000	0.00000000000000	2.96919100000000	0.00000000000000	
2.62499400000000	-49.29285200000000	662.46224700000005	44.06626900000000	0.18877100000000	0.00000000000000	0.10342100000000	18.61918000000000	249.96190700000000	-2.01217200000000	0.48045000000000	0.00000000000000	-0.08896600000000	0.00000000000000	25.66101200000000	0.00000000000000	0.00000000000000	2.49589900000000	0.00000000000000	
